<svg width="20" height="20" viewBox="0 0 20 20" fill="none" xmlns="http://www.w3.org/2000/svg">
<path d="M15.0004 11.667C15.3592 13.3369 16.6635 14.6414 18.3335 15C16.6635 15.3586 15.3592 16.6631 15.0004 18.333C14.6417 16.663 13.3365 15.3586 11.6665 15C13.3365 14.6414 14.6417 13.337 15.0004 11.667ZM7.56001 1.83301C8.31957 5.37014 11.0825 8.13385 14.6196 8.89355C11.0826 9.65327 8.31962 12.4161 7.56001 15.9531C6.8004 12.4161 4.03743 9.65325 0.500443 8.89355C4.03755 8.13387 6.80045 5.37016 7.56001 1.83301ZM15.8335 1.66699C16.1025 2.9194 17.081 3.89804 18.3335 4.16699C17.0809 4.43597 16.1024 5.41442 15.8335 6.66699C15.5645 5.41448 14.5859 4.43602 13.3335 4.16699C14.5859 3.89803 15.5644 2.91941 15.8335 1.66699Z" fill="#336185"/>
</svg>
