<svg width="68" height="68" viewBox="0 0 68 68" fill="none" xmlns="http://www.w3.org/2000/svg">
<path d="M36.833 3.54199C39.5706 3.54199 41.792 5.7624 41.792 8.5V9.20801H51C55.3044 9.20801 58.792 12.6956 58.792 17V26.208H59.5C62.2376 26.208 64.458 28.4294 64.458 31.167V36.833C64.458 39.5706 62.2376 41.792 59.5 41.792H58.792V51C58.792 55.3044 55.3044 58.792 51 58.792H41.792V59.5C41.792 62.2376 39.5706 64.458 36.833 64.458H31.167C28.4294 64.458 26.208 62.2376 26.208 59.5V58.792H17C12.8302 58.792 9.42752 55.5191 9.21875 51.4014L9.20801 51V41.792H8.5C5.7624 41.792 3.54199 39.5706 3.54199 36.833V31.167C3.54199 28.4294 5.7624 26.208 8.5 26.208H9.20801V17C9.20801 12.6956 12.6956 9.20801 17 9.20801H26.208V8.5C26.208 5.7624 28.4294 3.54199 31.167 3.54199H36.833ZM31.167 53.125C30.7767 53.125 30.4582 53.4428 30.458 53.833V59.5C30.458 59.8904 30.7766 60.208 31.167 60.208H36.833C37.2234 60.208 37.542 59.8904 37.542 59.5V53.833C37.5418 53.4428 37.2233 53.125 36.833 53.125H31.167ZM17 13.458C15.0428 13.458 13.458 15.0428 13.458 17V26.208H14.167C16.9044 26.2082 19.125 28.4295 19.125 31.167V36.833C19.125 39.5705 16.9044 41.7918 14.167 41.792H13.458V51L13.4629 51.1826C13.5578 53.0548 15.104 54.542 17 54.542H26.208V53.833C26.2082 51.0956 28.4295 48.875 31.167 48.875H36.833C39.5705 48.875 41.7918 51.0956 41.792 53.833V54.542H51C52.9572 54.542 54.542 52.9572 54.542 51V41.792H53.833C51.0956 41.7918 48.875 39.5705 48.875 36.833V31.167C48.875 28.4295 51.0956 26.2082 53.833 26.208H54.542V17C54.542 15.0428 52.9572 13.458 51 13.458H41.792V14.167C41.7918 16.9044 39.5705 19.125 36.833 19.125H31.167C28.4295 19.125 26.2082 16.9044 26.208 14.167V13.458H17ZM8.5 30.458C8.10961 30.458 7.79199 30.7766 7.79199 31.167V36.833C7.79199 37.2234 8.10961 37.542 8.5 37.542H14.167C14.5572 37.5418 14.875 37.2233 14.875 36.833V31.167C14.875 30.7767 14.5572 30.4582 14.167 30.458H8.5ZM53.833 30.458C53.4428 30.4582 53.125 30.7767 53.125 31.167V36.833C53.125 37.2233 53.4428 37.5418 53.833 37.542H59.5C59.8904 37.542 60.208 37.2234 60.208 36.833V31.167C60.208 30.7766 59.8904 30.458 59.5 30.458H53.833ZM34.1816 31.5234C35.5807 31.5032 36.6914 32.637 36.6914 34C36.6914 35.3469 35.6038 36.4822 34.2129 36.4824C32.8438 36.4824 31.7335 35.372 31.7334 34.0029C31.7334 31.9876 33.3878 31.535 34.1816 31.5234ZM31.167 7.79199C30.7766 7.79199 30.458 8.10961 30.458 8.5V14.167C30.4582 14.5572 30.7767 14.875 31.167 14.875H36.833C37.2233 14.875 37.5418 14.5572 37.542 14.167V8.5C37.542 8.10961 37.2234 7.79199 36.833 7.79199H31.167Z" fill="#336185"/>
</svg>
