<svg width="68" height="68" viewBox="0 0 68 68" fill="none" xmlns="http://www.w3.org/2000/svg">
<path d="M22.6895 40.3795C22.7491 40.3803 22.8087 40.3825 22.8682 40.3883C22.915 40.3928 22.961 40.4013 23.0068 40.4088C23.0286 40.4124 23.0506 40.4143 23.0723 40.4186C23.1189 40.4277 23.1645 40.4397 23.21 40.4518C23.2315 40.4575 23.2531 40.4629 23.2744 40.4694C23.3118 40.4806 23.3483 40.4942 23.3848 40.5074C23.4144 40.5181 23.4444 40.5276 23.4736 40.5397C23.5072 40.5536 23.5396 40.57 23.5723 40.5856C23.6023 40.5998 23.6326 40.6137 23.6621 40.6295C23.684 40.6412 23.7051 40.6542 23.7266 40.6666C23.8238 40.7231 23.9187 40.7859 24.0078 40.859C24.1713 40.993 24.3142 41.1512 24.4316 41.3278C24.4445 41.3471 24.4556 41.3676 24.4678 41.3873C24.492 41.4264 24.5154 41.4658 24.5371 41.5065C24.5472 41.5254 24.556 41.5449 24.5654 41.5641C24.5869 41.6075 24.6084 41.6509 24.627 41.6959C24.6357 41.7171 24.6424 41.739 24.6504 41.7604C24.6659 41.8019 24.6814 41.8436 24.6943 41.8864C24.7067 41.9273 24.7167 41.9688 24.7266 42.0104C24.7321 42.0338 24.7393 42.0569 24.7441 42.0807C24.7529 42.124 24.7576 42.1679 24.7637 42.2115C24.7768 42.3071 24.7871 42.4044 24.7871 42.5035V53.8414C24.7871 55.0149 23.8355 55.9662 22.6621 55.9664C21.4885 55.9664 20.5371 55.015 20.5371 53.8414V47.6324L9.99121 58.1783C9.16135 59.0082 7.81619 59.0082 6.98633 58.1783C6.15662 57.3485 6.15653 56.0033 6.98633 55.1735L17.5313 44.6285H11.3232C10.1499 44.6283 9.19829 43.677 9.19824 42.5035C9.19824 41.3301 10.1498 40.3788 11.3232 40.3785H22.6621C22.6712 40.3785 22.6804 40.3794 22.6895 40.3795ZM53.8408 9.19885C58.1465 9.19885 61.6346 12.6872 61.6348 16.9928V51.0074C61.6346 55.3131 58.1465 58.8014 53.8408 58.8014H34C32.8265 58.8014 31.8751 57.8499 31.875 56.6764V13.4489H14.1582C12.1997 13.4489 10.6144 15.0344 10.6143 16.9928V33.9996C10.6143 35.1731 9.66272 36.1245 8.48926 36.1246C7.31565 36.1246 6.36426 35.1732 6.36426 33.9996V16.9928C6.36438 12.6872 9.85254 9.19885 14.1582 9.19885H53.8408ZM36.125 54.5514H53.8408C55.7993 54.5514 57.3846 52.9659 57.3848 51.0074V16.9928C57.3846 15.0344 55.7993 13.4489 53.8408 13.4489H36.125V54.5514ZM51.0078 43.2135C52.1814 43.2136 53.1328 44.1649 53.1328 45.3385C53.1326 46.5119 52.1813 47.4634 51.0078 47.4635H42.5039C41.3305 47.4634 40.3791 46.5119 40.3789 45.3385C40.3789 44.165 41.3304 43.2136 42.5039 43.2135H51.0078ZM51.0078 31.8746C52.1812 31.8747 53.1326 32.8262 53.1328 33.9996C53.1328 35.1732 52.1814 36.1246 51.0078 36.1246H42.5039C41.3304 36.1245 40.3789 35.1732 40.3789 33.9996C40.3791 32.8263 41.3305 31.8748 42.5039 31.8746H51.0078ZM51.0078 20.5367C52.1813 20.5368 53.1328 21.4882 53.1328 22.6617C53.1328 23.8353 52.1814 24.7867 51.0078 24.7867H42.5039C41.3304 24.7866 40.3789 23.8353 40.3789 22.6617C40.379 21.4883 41.3304 20.5369 42.5039 20.5367H51.0078Z" fill="#336185"/>
</svg>
