<svg width="32" height="33" viewBox="0 0 32 33" fill="none" xmlns="http://www.w3.org/2000/svg">
<g filter="url(#filter0_d_4012_1352)">
<path d="M26.8887 22.667C27.5022 22.667 27.9998 23.1639 28 23.7773C28 24.391 27.5023 24.8887 26.8887 24.8887H6.44434C5.83074 24.8886 5.33301 24.391 5.33301 23.7773C5.33324 23.1639 5.83088 22.6671 6.44434 22.667H26.8887ZM23.7939 14.667C24.4075 14.667 24.905 15.1639 24.9053 15.7773C24.9053 16.391 24.4076 16.8887 23.7939 16.8887H9.5459C8.93225 16.8887 8.43457 16.391 8.43457 15.7773C8.4348 15.1639 8.93239 14.667 9.5459 14.667H23.7939ZM26.8887 6.66699C27.5022 6.66699 27.9998 7.16389 28 7.77734C28 8.39099 27.5023 8.88867 26.8887 8.88867H6.44434C5.83074 8.88861 5.33301 8.39096 5.33301 7.77734C5.33324 7.16393 5.83088 6.66705 6.44434 6.66699H26.8887Z" fill="#282B27"/>
</g>
<defs>
<filter id="filter0_d_4012_1352" x="-4" y="0" width="40" height="40" filterUnits="userSpaceOnUse" color-interpolation-filters="sRGB">
<feFlood flood-opacity="0" result="BackgroundImageFix"/>
<feColorMatrix in="SourceAlpha" type="matrix" values="0 0 0 0 0 0 0 0 0 0 0 0 0 0 0 0 0 0 127 0" result="hardAlpha"/>
<feOffset dy="4"/>
<feGaussianBlur stdDeviation="2"/>
<feComposite in2="hardAlpha" operator="out"/>
<feColorMatrix type="matrix" values="0 0 0 0 0 0 0 0 0 0 0 0 0 0 0 0 0 0 0.25 0"/>
<feBlend mode="normal" in2="BackgroundImageFix" result="effect1_dropShadow_4012_1352"/>
<feBlend mode="normal" in="SourceGraphic" in2="effect1_dropShadow_4012_1352" result="shape"/>
</filter>
</defs>
</svg>
