<svg width="68" height="68" viewBox="0 0 68 68" fill="none" xmlns="http://www.w3.org/2000/svg">
<path d="M19.833 34.708C21.0065 34.708 21.9578 35.6596 21.958 36.833C21.958 41.9186 26.0814 46.042 31.167 46.042C32.3404 46.0422 33.292 46.9935 33.292 48.167C33.2918 49.3403 32.3403 50.2918 31.167 50.292C26.0814 50.292 21.958 54.4144 21.958 59.5C21.958 60.6736 21.0066 61.625 19.833 61.625C18.6596 61.6248 17.708 60.6735 17.708 59.5C17.708 54.4144 13.5856 50.292 8.5 50.292C7.3265 50.292 6.37518 49.3404 6.375 48.167C6.375 46.9934 7.32639 46.042 8.5 46.042C13.5856 46.042 17.708 41.9186 17.708 36.833C17.7082 35.6597 18.6597 34.7082 19.833 34.708ZM19.833 44.0947C18.7849 45.7272 17.3942 47.1189 15.7617 48.167C17.394 49.215 18.785 50.606 19.833 52.2383C20.8811 50.6058 22.2728 49.2151 23.9053 48.167C22.2727 47.1188 20.8812 45.7273 19.833 44.0947ZM51 6.375C56.868 6.375 61.625 11.132 61.625 17V39.667C61.6248 45.5349 56.8679 50.292 51 50.292H42.5C41.3265 50.292 40.3752 49.3404 40.375 48.167C40.375 46.9934 41.3264 46.042 42.5 46.042H51C54.5207 46.042 57.3748 43.1877 57.375 39.667V24.792H10.625V36.833C10.625 38.0066 9.6736 38.958 8.5 38.958C7.32639 38.958 6.375 38.0066 6.375 36.833V17C6.375 11.132 11.132 6.375 17 6.375H51ZM48.167 34.708C49.3403 34.7082 50.2918 35.6597 50.292 36.833C50.292 38.0065 49.3404 38.9578 48.167 38.958H39.667C38.4934 38.958 37.542 38.0066 37.542 36.833C37.5422 35.6596 38.4935 34.708 39.667 34.708H48.167ZM17 10.625C13.4792 10.625 10.625 13.4792 10.625 17V20.542H57.375V17C57.375 13.4792 54.5208 10.625 51 10.625H17Z" fill="#336185"/>
</svg>
