<svg width="68" height="68" viewBox="0 0 68 68" fill="none" xmlns="http://www.w3.org/2000/svg">
<path fill-rule="evenodd" clip-rule="evenodd" d="M57.8638 33.9858C58.6936 34.8156 58.6936 36.1611 57.8638 36.991L56.0641 38.7907C55.2342 39.6205 53.8887 39.6205 53.0589 38.7907C52.229 37.9608 52.229 36.6153 53.0589 35.7855L54.8586 33.9858C55.6884 33.1559 57.0339 33.1559 57.8638 33.9858Z" fill="#336185"/>
<path fill-rule="evenodd" clip-rule="evenodd" d="M38.7907 53.0589C39.6205 53.8887 39.6205 55.2342 38.7907 56.0641L36.991 57.8638C36.1611 58.6936 34.8156 58.6936 33.9858 57.8638C33.1559 57.0339 33.1559 55.6884 33.9858 54.8586L35.7855 53.0589C36.6153 52.229 37.9608 52.229 38.7907 53.0589Z" fill="#336185"/>
<path fill-rule="evenodd" clip-rule="evenodd" d="M45.9248 29.0405C47.0984 29.0405 48.0498 29.9919 48.0498 31.1655V33.7106C48.0498 34.8842 47.0984 35.8356 45.9248 35.8356C44.7512 35.8356 43.7998 34.8842 43.7998 33.7106V31.1655C43.7998 29.9919 44.7512 29.0405 45.9248 29.0405Z" fill="#336185"/>
<path fill-rule="evenodd" clip-rule="evenodd" d="M33.9858 33.9858C34.8156 33.1559 36.1611 33.1559 36.991 33.9858L38.7907 35.7855C39.6205 36.6153 39.6205 37.9608 38.7907 38.7907C37.9608 39.6205 36.6153 39.6205 35.7855 38.7907L33.9858 36.991C33.1559 36.1611 33.1559 34.8156 33.9858 33.9858Z" fill="#336185"/>
<path fill-rule="evenodd" clip-rule="evenodd" d="M29.0405 45.9248C29.0405 44.7512 29.9919 43.7998 31.1655 43.7998H33.7106C34.8842 43.7998 35.8356 44.7512 35.8356 45.9248C35.8356 47.0984 34.8842 48.0498 33.7106 48.0498H31.1655C29.9919 48.0498 29.0405 47.0984 29.0405 45.9248Z" fill="#336185"/>
<path fill-rule="evenodd" clip-rule="evenodd" d="M42.7228 42.7227C43.7119 41.7336 45.1751 41.3882 46.5021 41.8306L59.1101 46.0332C60.4783 46.4893 61.4559 47.7001 61.6133 49.1338C61.7707 50.5674 61.0791 51.9615 59.8424 52.7036L55.5976 55.2506C55.4552 55.3359 55.3361 55.4551 55.2507 55.5974L52.7038 59.8422C51.9617 61.079 50.5676 61.7706 49.1339 61.6133C47.7003 61.4559 46.4894 60.4783 46.0333 59.11L41.8306 46.5021C41.3883 45.175 41.7336 43.7119 42.7228 42.7227ZM46.2147 46.2146L56.6175 49.6823L53.411 51.6062C52.6705 52.0505 52.0506 52.6703 51.6063 53.4108L49.6823 56.6175L46.2147 46.2146Z" fill="#336185"/>
<path fill-rule="evenodd" clip-rule="evenodd" d="M52.3975 52.3975C53.2274 51.5676 54.5728 51.5676 55.4027 52.3975L60.2083 57.2031C61.0382 58.0329 61.0382 59.3784 60.2083 60.2083C59.3784 61.0382 58.0329 61.0382 57.2031 60.2083L52.3975 55.4027C51.5676 54.5728 51.5676 53.2274 52.3975 52.3975Z" fill="#336185"/>
<path fill-rule="evenodd" clip-rule="evenodd" d="M6.36438 19.8274C6.36438 18.6538 7.31577 17.7024 8.48938 17.7024H59.5106C60.6842 17.7024 61.6356 18.6538 61.6356 19.8274C61.6356 21.001 60.6842 21.9524 59.5106 21.9524H8.48938C7.31577 21.9524 6.36438 21.001 6.36438 19.8274Z" fill="#336185"/>
<path fill-rule="evenodd" clip-rule="evenodd" d="M16.9929 10.6144C13.4701 10.6144 10.6144 13.4701 10.6144 16.9929V39.669C10.6144 43.1918 13.4702 46.0476 16.9929 46.0476H19.8274C21.001 46.0476 21.9524 46.999 21.9524 48.1726C21.9524 49.3462 21.001 50.2976 19.8274 50.2976H16.9929C11.1229 50.2976 6.36438 45.539 6.36438 39.669V16.9929C6.36438 11.1229 11.1229 6.36438 16.9929 6.36438H51.0071C56.8771 6.36438 61.6356 11.1229 61.6356 16.9929V25.4965C61.6356 26.6701 60.6842 27.6215 59.5106 27.6215C58.337 27.6215 57.3856 26.6701 57.3856 25.4965V16.9929C57.3856 13.4701 54.5299 10.6144 51.0071 10.6144H16.9929Z" fill="#336185"/>
</svg>
